<?xml version="1.0" encoding="UTF-8"?>
<svg width="318px" height="162px" viewBox="0 0 318 162" version="1.1" xmlns="http://www.w3.org/2000/svg" xmlns:xlink="http://www.w3.org/1999/xlink">
    <title>圆形装饰</title>
    <defs>
        <circle id="path-1" cx="159" cy="80" r="54.1935484"></circle>
        <filter x="-9.2%" y="-9.2%" width="118.5%" height="118.5%" filterUnits="objectBoundingBox" id="filter-2">
            <feGaussianBlur stdDeviation="2" in="SourceAlpha" result="shadowBlurInner1"></feGaussianBlur>
            <feOffset dx="0" dy="0" in="shadowBlurInner1" result="shadowOffsetInner1"></feOffset>
            <feComposite in="shadowOffsetInner1" in2="SourceAlpha" operator="arithmetic" k2="-1" k3="1" result="shadowInnerInner1"></feComposite>
            <feColorMatrix values="0 0 0 0 0   0 0 0 0 0.917647059   0 0 0 0 0.533333333  0 0 0 1 0" type="matrix" in="shadowInnerInner1"></feColorMatrix>
        </filter>
        <path d="M159,153 C199.316787,153 232,120.316787 232,80 C232,39.6832133 199.316787,7 159,7 C118.683213,7 86,39.6832133 86,80 C86,120.316787 118.683213,153 159,153 Z" id="path-3"></path>
        <mask id="mask-4" maskContentUnits="userSpaceOnUse" maskUnits="objectBoundingBox" x="0" y="0" width="146" height="146" fill="white">
            <use xlink:href="#path-3"></use>
        </mask>
    </defs>
    <g id="大屏可视化-案例" stroke="none" stroke-width="1" fill="none" fill-rule="evenodd">
        <g id="电力系统" transform="translate(-64.000000, -831.000000)">
            <g id="编组-13备份-20" transform="translate(40.000000, 744.000000)">
                <g id="圆形装饰" transform="translate(24.000000, 88.000000)">
                    <circle id="椭圆形" stroke-opacity="0.2" stroke="#73A6C0" stroke-width="2" cx="159" cy="80" r="80"></circle>
                    <path d="M102.431458,23.4314575 C71.1895142,54.6734008 71.1895142,105.326599 102.431458,136.568542 M215.568542,136.568542 C246.810486,105.326599 246.810486,54.6734008 215.568542,23.4314575" id="形状" stroke="#00EA88" stroke-width="2" opacity="0.400000006"></path>
                    <g id="椭圆形">
                        <use fill="black" fill-opacity="1" filter="url(#filter-2)" xlink:href="#path-1"></use>
                        <circle stroke-opacity="0.1" stroke="#00EA88" stroke-width="8" cx="159" cy="80" r="58.1935484"></circle>
                    </g>
                    <use id="椭圆形" stroke-opacity="0.2" stroke="#73A6C0" mask="url(#mask-4)" stroke-width="4" stroke-dasharray="64,80" xlink:href="#path-3"></use>
                    <g id="编组-14" transform="translate(0.000000, 18.000000)" stroke="#73A6C0" stroke-opacity="0.2">
                        <polyline id="路径-13备份" transform="translate(41.500000, 4.000000) scale(-1, 1) translate(-41.500000, -4.000000) " points="0 8 8 2.27373675e-13 83 2.27373675e-13"></polyline>
                        <polyline id="路径-13备份" transform="translate(41.500000, 120.000000) scale(-1, -1) translate(-41.500000, -120.000000) " points="0 124 8 116 83 116"></polyline>
                        <polyline id="路径-13备份" points="235 8 243 2.27373675e-13 318 2.27373675e-13"></polyline>
                        <polyline id="路径-13备份" transform="translate(276.500000, 120.000000) scale(1, -1) translate(-276.500000, -120.000000) " points="235 124 243 116 318 116"></polyline>
                    </g>
                </g>
            </g>
        </g>
    </g>
</svg>